<?xml version="1.0" encoding="utf-8"?>
<!-- Generator: Adobe Illustrator 18.1.1, SVG Export Plug-In . SVG Version: 6.00 Build 0)  -->
<svg version="1.1" id="Capa_1" xmlns="http://www.w3.org/2000/svg" xmlns:xlink="http://www.w3.org/1999/xlink" x="0px" y="0px"
	 viewBox="0 0 40.7 40.7" enable-background="new 0 0 40.7 40.7" xml:space="preserve">
<g>
	
		<linearGradient id="SVGID_1_" gradientUnits="userSpaceOnUse" x1="-133.9812" y1="-219.6359" x2="-150.5228" y2="-236.1775" gradientTransform="matrix(0.6992 0.7149 -0.7149 0.6992 -48.6529 281.3432)">
		<stop  offset="0" style="stop-color:#FC00FF"/>
		<stop  offset="1" style="stop-color:#00DBDE"/>
	</linearGradient>
	<path fill="none" stroke="url(#SVGID_1_)" stroke-width="5" stroke-miterlimit="10" d="M22.6,16.8l-4.1-4.2c-1.9-2-5.1-2-7.1-0.1
		l-4.2,4.1c-2,1.9-2,5.1-0.1,7.1l4.1,4.2c1.9,2,5.1,2,7.1,0.1l4.2-4.1C24.5,22,24.5,18.8,22.6,16.8z"/>
	
		<linearGradient id="SVGID_2_" gradientUnits="userSpaceOnUse" x1="-126.164" y1="-227.453" x2="-142.7057" y2="-243.9947" gradientTransform="matrix(0.6992 0.7149 -0.7149 0.6992 -48.6529 281.3432)">
		<stop  offset="0" style="stop-color:#FC00FF"/>
		<stop  offset="1" style="stop-color:#00DBDE"/>
	</linearGradient>
	<path fill="none" stroke="url(#SVGID_2_)" stroke-width="5" stroke-miterlimit="10" d="M33.6,16.9l-4.1-4.2c-1.9-2-5.1-2-7.1-0.1
		l-4.2,4.1c-2,1.9-2,5.1-0.1,7.1l4.1,4.2c1.9,2,5.1,2,7.1,0.1l4.2-4.1C35.6,22.1,35.6,18.9,33.6,16.9z"/>
</g>
</svg>
